<svg width="24.000000" height="13.655273" viewBox="0 0 24 13.6553" fill="none" xmlns="http://www.w3.org/2000/svg" xmlns:xlink="http://www.w3.org/1999/xlink">
	<desc>
			Created with Pixso.
	</desc>
	<defs/>
	<path id="Vector" d="M13.53 6.82C13.53 10.59 10.5 13.65 6.76 13.65C3.03 13.65 0 10.59 0 6.82C0 3.05 3.03 0 6.76 0C10.5 0 13.53 3.05 13.53 6.82Z" fill="#FFFFFF" fill-opacity="1.000000" fill-rule="nonzero"/>
	<path id="Vector" d="M20.96 6.82C20.96 10.37 19.44 13.25 17.57 13.25C15.71 13.25 14.19 10.37 14.19 6.82C14.19 3.27 15.7 0.39 17.57 0.39C19.44 0.39 20.96 3.27 20.96 6.82Z" fill="#FFFFFF" fill-opacity="1.000000" fill-rule="nonzero"/>
	<path id="Vector" d="M24 6.82C24 10 23.46 12.58 22.8 12.58C22.15 12.58 21.61 10 21.61 6.82C21.61 3.64 22.15 1.06 22.8 1.06C23.46 1.06 24 3.64 24 6.82Z" fill="#FFFFFF" fill-opacity="1.000000" fill-rule="nonzero"/>
</svg>
